<?xml version="1.0" standalone="no"?>
<!DOCTYPE svg PUBLIC "-//W3C//DTD SVG 20010904//EN"
 "http://www.w3.org/TR/2001/REC-SVG-20010904/DTD/svg10.dtd">
<svg version="1.0" xmlns="http://www.w3.org/2000/svg"
 width="260.000000pt" height="260.000000pt" viewBox="0 0 260.000000 260.000000"
 preserveAspectRatio="xMidYMid meet">
<metadata>
Created by potrace 1.14, written by Peter Selinger 2001-2017
</metadata>
<g transform="translate(0.000000,260.000000) scale(0.100000,-0.100000)"
fill="#000000" stroke="none">
<path d="M1135 1798 c-21 -46 -74 -157 -117 -247 -43 -89 -78 -164 -78 -166 0
-2 -30 -65 -66 -141 -36 -77 -74 -157 -84 -179 -10 -22 -50 -106 -88 -187 -39
-81 -67 -149 -64 -152 3 -3 58 -6 123 -6 138 0 123 -11 189 140 23 52 49 101
57 108 13 9 88 12 294 12 153 0 285 -3 294 -7 10 -3 44 -62 76 -130 l58 -123
125 0 c70 0 126 4 126 9 0 5 -40 93 -90 196 -49 103 -90 188 -90 190 0 1 -34
74 -76 161 -78 163 -153 320 -239 502 l-48 102 -132 0 -132 0 -38 -82z m279
-392 c53 -116 96 -216 96 -223 0 -10 -42 -13 -199 -13 -110 0 -202 4 -205 9
-7 10 5 39 69 176 25 53 45 98 45 100 0 1 18 42 41 90 23 50 44 84 49 79 4 -5
51 -103 104 -218z"/>
</g>
</svg>
